C:/Program Files/Krita (x64)/bin/ffmpeg.exe -hide_banner -y -y -r 24 -start_number 0 -start_number_range 1 -i C:/Users/Jetsan/Art/ARTIS409/bedfall/frame%04d.png -i C:/Users/Jetsan/Art/ARTIS409/bedfall/KritaTempPalettegen_%06d.png -lavfi [0:v][1:v]paletteuse=dither=sierra2_4a:diff_mode=none -f gif -loop 0 -gifflags +transdiff C:/Users/Jetsan/Art/ARTIS409/bedfall/BedFall.gif
=====================================================
Input #0, image2, from 'C:/Users/Jetsan/Art/ARTIS409/bedfall/frame%04d.png':
  Duration: 00:00:01.64, start: 0.000000, bitrate: N/A
  Stream #0:0: Video: png, rgba(pc), 1080x720 [SAR 11811:11811 DAR 3:2], 25 fps, 25 tbr, 25 tbn, 25 tbc
Input #1, image2, from 'C:/Users/Jetsan/Art/ARTIS409/bedfall/KritaTempPalettegen_%06d.png':
  Duration: 00:00:00.04, start: 0.000000, bitrate: N/A
  Stream #1:0: Video: png, rgba(pc), 16x16 [SAR 1:1 DAR 1:1], 25 fps, 25 tbr, 25 tbn, 25 tbc
Stream mapping:
  Stream #0:0 (png) -> paletteuse:default
  Stream #1:0 (png) -> paletteuse:palette
  paletteuse -> Stream #0:0 (gif)
Press [q] to stop, [?] for help
[image2 @ 00000269c7aeb100] Thread message queue blocking; consider raising the thread_queue_size option (current value: 8)
Output #0, gif, to 'C:/Users/Jetsan/Art/ARTIS409/bedfall/BedFall.gif':
  Metadata:
    encoder         : Lavf58.76.100
  Stream #0:0: Video: gif, pal8(pc, gbr/unknown/unknown, progressive), 1080x720 [SAR 1:1 DAR 3:2], q=2-31, 200 kb/s, 24 fps, 100 tbn (default)
    Metadata:
      encoder         : Lavc58.134.100 gif
frame=    1 fps=0.0 q=-0.0 size=       0kB time=00:00:00.01 bitrate=   0.0kbits/s speed=0.297x    frame=   16 fps=0.0 q=-0.0 size=     142kB time=00:00:00.64 bitrate=1818.5kbits/s speed=1.15x    frame=   31 fps= 29 q=-0.0 size=     256kB time=00:00:01.26 bitrate=1664.4kbits/s speed=1.18x    frame=   41 fps= 29 q=-0.0 Lsize=     334kB time=00:00:01.68 bitrate=1627.8kbits/s speed=1.19x    
video:334kB audio:0kB subtitle:0kB other streams:0kB global headers:0kB muxing overhead: 0.005851%
